<svg
  width="100"
  height="100"
  viewBox="0 0 64 64"
  xmlns="http://www.w3.org/2000/svg"
>
  <!-- 전체 테두리용 전구 경로 (흰쪽 배경용 검정 테두리) -->
  <path
    d="M32 2C19.85 2 10 11.85 10 24c0 6.55 3.14 12.44 8 16.28V48a2 2 0 0 0 2 2h4v4a2 2 0 0 0 2 2h12a2 2 0 0 0 2-2v-4h4a2 2 0 0 0 2-2v-7.72c4.86-3.84 8-9.73 8-16.28C54 11.85 44.15 2 32 2z"
    fill="#ffffff"
    stroke="#000"
    stroke-width="2"
  />

  <!-- 왼쪽 절반 영역: 검정 배경 + 흰 테두리 -->
  <defs>
    <clipPath id="leftHalf">
      <rect x="0" y="0" width="32" height="64" />
    </clipPath>
  </defs>

  <g clip-path="url(#leftHalf)">
    <path
      d="M32 2C19.85 2 10 11.85 10 24c0 6.55 3.14 12.44 8 16.28V48a2 2 0 0 0 2 2h4v4a2 2 0 0 0 2 2h12a2 2 0 0 0 2-2v-4h4a2 2 0 0 0 2-2v-7.72c4.86-3.84 8-9.73 8-16.28C54 11.85 44.15 2 32 2z"
      fill="#000000"
      stroke="#fff"
      stroke-width="2"
    />
  </g>
</svg>
